<svg xmlns="http://www.w3.org/2000/svg" width="58" height="83" viewBox="60 8 58 83" fill="none"><path d="M117.873 37.2077C117.873 21.3133 104.988 8.42769 89.0933 8.42769C73.1989 8.42769 60.2218 21.2408 60.2218 37.1352V91H67.902V37.1505C67.9135 25.4547 77.428 15.9478 89.1238 15.9478C100.82 15.9478 110.349 25.4699 110.349 37.1734C110.349 48.8768 100.827 58.3989 89.1238 58.3989V58.4218H81.577V66.0487H89.528V65.9953C105.22 65.7627 117.873 52.9686 117.873 37.2191" fill="#006eb7"></path><path d="M107.768 37.12C107.768 26.8199 99.3896 18.4418 89.0895 18.4418C78.7894 18.4418 70.4113 26.8199 70.4113 37.12V84.582H78.1716V63.8331C78.1525 63.8255 78.1907 63.8178 78.1716 63.8102V55.6952H78.164V38.3822C78.164 38.3822 78.1945 37.5509 78.1945 37.3183C78.1945 31.3998 82.9155 26.694 88.834 26.694C94.7524 26.694 99.5459 31.4913 99.5459 37.406C99.5459 43.3206 94.6228 48.0417 89.0132 48.137L88.3611 48.1484C88.3611 48.1484 86.6184 48.2133 84.971 48.2133H81.5503L81.5389 55.8592H89.6195C99.7328 55.6495 107.768 47.2828 107.768 37.12Z" fill="#192959"></path></svg>